<svg xmlns="http://www.w3.org/2000/svg" xmlns:xlink="http://www.w3.org/1999/xlink" width="74" height="74" viewBox="0 0 74 74">
  <defs>
    <rect id="rect-1" width="74" height="74" x="0" y="0"/>
    <rect id="rect-2" width="74" height="74" x="0" y="0"/>
    <mask id="mask-3" maskContentUnits="userSpaceOnUse" maskUnits="userSpaceOnUse">
      <rect width="74" height="74" x="0" y="0" fill="black"/>
      <use fill="white" xlink:href="#rect-2"/>
    </mask>
  </defs>
  <g>
    <use fill="none" xlink:href="#rect-2"/>
    <g mask="url(#mask-3)">
      <g>
        <ellipse cx="36.379" cy="26.5" fill="rgb(249,155,38)" rx="21.5" ry="21.5"/>
        <path fill="rgb(255,255,255)" fill-rule="evenodd" d="M21.67715352 28.8738546l4.13461538 1.451373 10.94457014 10.13501144 8.99886877-9.16332951 5.35067874-2.65675058-2.4321267-3.6284325 1.45927602-10.81149885-7.78280543 8.60983982H30.65170103l-7.02884616-8.60983982.60803168 10.55320366-2.55373303 4.12042335z"/>
      </g>
      <g>
        <path fill="rgb(42,54,84)" fill-rule="evenodd" d="M17.6763861 59.86120977c-.6508874 1.0651212-1.83055657 1.70946649-3.0960128 1.6910684C12.51636476 61.55227816 11 60.061845 11 58.13909067c0-1.8057171 1.50662887-3.31525838 3.5803733-3.31525838 1.41170395 0 2.52159533.649676 3.11548458 1.62418999l-1.35328861.77387875c-.44581555-.75945855-1.35105348-1.1363891-2.21738944-.92329517-.86633597.21309394-1.48338024.96446247-1.51145617 1.84048481-.00790063.51505709.196443 1.0114277.56669917 1.37656757.37025617.36513986.87505832.56811586 1.39995047.56290635.72317701.01934039 1.39636077-.36078782 1.74272419-.98406804l1.35328862.7667132z"/>
        <path fill="rgb(42,54,84)" fill-rule="evenodd" d="M20.10059533 60.424903h3.19339l.41862872 1.01274713h1.70382221l-2.84292305-6.49676955h-1.78164208l-2.83315394 6.49676955h1.7037667l.43811144-1.01274713zm1.60640861-3.70696872l1.03202914 2.42674157h-2.08348549l1.05145635-2.42674157z"/>
        <path fill="rgb(42,54,84)" fill-rule="evenodd" d="M29.50547635 59.96631905c1.6940531 0 2.52159693-1.2420391 2.52159693-2.52226625 0-1.26113312-.81783022-2.50317222-2.51188332-2.50317222h-3.05462418v6.49676955h1.60396632v-1.47133108h1.44094425zm-1.44088874-1.44266275v-2.13056595h1.26565527c.64259674.009547 1.08070818.34393795 1.08070818 1.05093517 0 .7070245-.43811144 1.07963078-1.08070818 1.07963078H28.0645876z"/>
        <path fill="rgb(42,54,84)" fill-rule="evenodd" d="M39.17322974 56.39308645H36.8268804v5.044543h-1.61615763v-5.044543h-2.34391535v-1.45221693h6.3064223v1.45221693z"/>
        <path fill="rgb(42,54,84)" fill-rule="evenodd" d="M46.2317495 59.86120977c-.65088742 1.0651212-1.83055658 1.70946649-3.0960128 1.6910684-2.07374443 0-3.58280728-1.49043317-3.58280728-3.41079897 0-1.8057171 1.50906285-3.31525838 3.58280727-3.31525838 1.41170395 0 2.52159534.649676 3.11548459 1.62418998l-1.3630245.77387876c-.44940047-.74981322-1.34846062-1.1194742-2.2083058-.90797536-.8598452.21149882-1.47493374.95359971-1.51080393 1.82277648-.00790063.51505709.196443 1.0114277.56669917 1.37656757.37025617.36513986.87505833.56811586 1.39995047.56290635.72663483.02298593 1.40449662-.35765734 1.75246008-.98406804l1.34355273.7667132z"/>
        <path fill="rgb(42,54,84)" fill-rule="evenodd" d="M53.40709993 61.43762946H51.8006782v-2.5222715h-2.9207668v2.5222715h-1.59668585v-6.49675994h1.59668585v2.5222715h2.9207668v-2.5222715h1.60642174v6.49675994z"/>
        <path fill="rgb(42,54,84)" fill-rule="evenodd" d="M56.63941122 60.424903h3.19339l.41862872 1.01274713h1.7038222l-2.84292304-6.49676955H57.330687l-2.83315393 6.49676955h1.7037667l.43811144-1.01274713zm1.6064086-3.70696872l1.03202914 2.42674157h-2.08348548l1.05145635-2.42674157z"/>
      </g>
      <g>
        <path fill="rgb(248,154,37)" fill-rule="evenodd" d="M31.95175774 65.56686563h-3.4757125v1.49043316h2.90129503v1.43310881h-2.90129502v2.11144698H26.8793594V64.1146487h5.07239834v1.45221693z"/>
        <path fill="rgb(248,154,37)" fill-rule="evenodd" d="M35.69688946 70.68782112c1.87938872.00701023 3.40975366-1.48052348 3.42046638-3.32478816-.00127664-1.8493655-1.5230381-3.35121974-3.4075334-3.36303076-1.87944423.00002728-3.403981 1.4932892-3.40753341 3.33758115-.0035524 1.84431923 1.5152117 3.34322753 3.39460043 3.35023777zm-.00654974-1.41399444c-1.07537958 0-1.94716195-.85549419-1.94716195-1.91079372 0-1.0553268.87178237-1.91082099 1.94716195-1.91082099 1.07543508 0 1.94721745.85549419 1.94721745 1.910821 0 1.05529952-.87178237 1.9107937-1.94721745 1.9107937z"/>
        <path fill="rgb(248,154,37)" fill-rule="evenodd" d="M39.26341062 69.5795703l2.21978277-2.14966322-2.33661344-2.3120822L40.285679 64l2.33661344 2.31208221L45.0270571 64l1.13909905 1.10827081-2.43397233 2.3407444 2.21004688 2.1496632-1.15857083 1.12737893-2.1905751-2.17832539-2.21004688 2.14966322-1.11962727-1.11782487z"/>
      </g>
    </g>
  </g>
</svg>
